<?xml version="1.0" encoding="UTF-8" standalone="no"?>
<!-- Created with Inkscape (http://www.inkscape.org/) -->

<svg
   width="200"
   height="200"
   viewBox="0 0 135.46666 135.46667"
   version="1.1"
   id="svg5"
   sodipodi:docname="logo.svg"
   inkscape:version="1.1 (c68e22c387, 2021-05-23)"
   xmlns:inkscape="http://www.inkscape.org/namespaces/inkscape"
   xmlns:sodipodi="http://sodipodi.sourceforge.net/DTD/sodipodi-0.dtd"
   xmlns="http://www.w3.org/2000/svg"
   xmlns:svg="http://www.w3.org/2000/svg">
  <sodipodi:namedview
     id="namedview7"
     pagecolor="#505050"
     bordercolor="#eeeeee"
     borderopacity="1"
     inkscape:pageshadow="0"
     inkscape:pageopacity="0"
     inkscape:pagecheckerboard="0"
     inkscape:document-units="mm"
     showgrid="false"
     inkscape:zoom="0.49071405"
     inkscape:cx="605.24047"
     inkscape:cy="329.11224"
     inkscape:window-width="1920"
     inkscape:window-height="1001"
     inkscape:window-x="-9"
     inkscape:window-y="-9"
     inkscape:window-maximized="1"
     inkscape:current-layer="layer1"
     units="px" />
  <defs
     id="defs2" />
  <g
     inkscape:label="Layer 1"
     inkscape:groupmode="layer"
     id="layer1">
    <g
       id="g1459"
       transform="matrix(1.264618,0,0,1.264618,-61.481728,-124.64282)">
      <path
         id="path854"
         style="fill:#fda591;fill-opacity:1;stroke:none;stroke-width:0.164599;stroke-opacity:1"
         d="m 522.76758,495.99805 c -1.53979,-0.009 -3.08371,0.34268 -4.49805,1.05664 -3.63507,1.83503 -18.67234,16.44532 -29.48633,28.64843 -4.1862,4.72385 -5.58407,6.31438 -8.87109,10.10547 -2.03596,2.34822 -4.44235,5.13138 -5.34766,6.1836 -0.90527,1.05229 -2.06455,2.38978 -2.57422,2.97265 -0.51016,0.58292 -2.28378,2.61453 -3.9414,4.51563 -8.47011,9.71482 -13.19391,14.80365 -20.71094,22.31055 -6.52203,6.51322 -9.95509,9.67508 -15.82617,14.57421 -1.85057,1.54428 -3.7128,3.19586 -4.13867,3.66993 -1.84672,2.05508 -2.24513,4.06393 -1.51367,7.64257 0.54115,2.64768 2.33716,5.27094 7.90429,11.55274 6.42388,7.24853 12.61317,15.37828 18.98828,24.9375 5.05648,7.58203 8.2578,12.01977 13.24024,18.35547 2.98715,3.79854 2.68696,3.51622 -4.10157,-3.85352 -2.53481,-2.75195 -4.68638,-5.08577 -4.78124,-5.18554 -0.095,-0.0999 -1.56898,-1.69887 -3.2754,-3.55469 -1.70645,-1.85586 -3.8571,-4.18972 -4.77734,-5.18555 -0.92024,-0.99579 -4.47512,-4.84687 -7.90039,-8.55859 -10.32004,-11.18336 -9.90663,-10.7392 -17.93945,-19.25391 -6.94477,-7.36146 -17.40982,-18.24295 -26.9961,-28.06836 -9.3626,-9.59629 -10.40185,-10.5232 -13.49218,-12.02148 -2.05486,-0.99625 -3.80128,-1.46285 -5.94922,-1.58985 -4.30694,-0.25511 -8.75718,1.36249 -12.87305,4.67774 -0.56907,0.45838 -4.12403,3.77976 -7.90039,7.38086 -3.77634,3.60106 -7.53567,7.18267 -8.35352,7.95898 -1.8052,1.71345 -7.70037,7.36594 -13.48828,12.93359 -13.98237,13.4504 -33.87578,33.37117 -35.55664,35.60547 -4.13921,5.50216 -5.79377,13.20411 -4.19922,19.55274 0.7127,2.83755 2.92123,6.44799 8.29492,13.5625 2.01714,2.67057 6.74712,8.63853 9.13086,11.52148 3.06604,3.70795 3.16232,3.8454 1.4004,1.97461 -5.95357,-6.32141 -12.63256,-12.98308 -24.58594,-24.52148 -12.93119,-12.48235 -19.95493,-19.727 -26.41211,-27.24414 -2.75619,-3.20871 -6.36896,-6.80736 -8.23438,-8.20118 -0.81476,-0.60884 -2.29714,-1.51442 -3.29297,-2.00976 -4.3217,-2.15082 -6.85825,-2.07438 -11.93359,0.35352 -8.0683,3.85965 -18.99619,12.19573 -35.14258,26.80859 -0.0664,0.0601 -0.0901,0.0807 -0.15625,0.14062 a 195.97262,195.97262 0 0 0 10.78321,23.01953 c 5.98385,-2.99909 11.18639,-5.18864 11.61132,-4.76367 0.0761,0.0762 -1.57385,2.82598 -7.33203,12.23438 a 195.97262,195.97262 0 0 0 10.11524,15.06055 c 8.44205,-6.49656 16.13703,-11.57884 22.46679,-14.72657 4.96681,-2.46996 8.35113,-3.66254 11.81055,-4.16015 1.63083,-0.23396 2.18746,-0.24518 3.89258,-0.0781 13.53377,1.32166 29.46066,10.82175 54.91016,32.75586 1.31267,1.13136 2.424,2.10056 2.46874,2.15234 0.0453,0.0525 0.63582,0.57542 1.3125,1.16211 0.67667,0.58674 1.5282,1.33481 1.89258,1.66211 0.71907,0.64509 1.13916,1.01409 9.71485,8.5293 9.9463,8.71638 14.31446,12.24836 18.59961,15.03516 1.55952,1.01416 3.73571,2.19678 4.73828,2.57617 0.43891,0.16592 0.44936,0.15807 0.26367,-0.19531 -0.10643,-0.20236 -0.87718,-1.627 -1.71289,-3.16602 -0.83572,-1.53899 -3.02053,-5.57582 -4.85352,-8.9707 -4.99636,-9.25384 -9.95775,-18.43626 -11.16211,-20.65821 -0.58887,-1.08631 -2.48823,-4.60459 -4.22265,-7.81836 -4.42034,-8.1908 -17.14732,-31.71875 -20.83399,-38.51562 -1.69407,-3.12329 -3.05808,-5.70036 -3.03125,-5.73438 0.0269,-0.0299 0.92453,0.0605 1.9961,0.19922 6.98735,0.90524 15.13211,0.74462 20.38476,-0.40039 5.5274,-1.20495 9.10462,-3.46567 10.21289,-6.45312 0.28169,-0.75908 0.32062,-1.30446 0.32227,-4.56446 10e-4,-3.34276 0.0387,-3.85618 0.39062,-5.26757 1.01759,-4.08193 2.98773,-7.57443 5.94532,-10.54102 3.96192,-3.9741 8.69291,-5.91982 14.38281,-5.91797 5.45921,0.002 10.69155,1.67377 17.54883,5.60742 3.19498,1.83277 6.32873,3.99047 20.41015,14.0586 7.19717,5.14594 19.27091,13.77577 26.83008,19.17773 7.55928,5.40197 25.74243,18.40106 40.4082,28.88672 14.40737,10.30087 34.64108,24.76616 45.72266,32.6875 a 195.97262,195.97262 0 0 0 9.21484,-9.21289 c -2.16679,-3.18574 -1.92755,-2.8492 -4.95703,-7.30469 -2.47646,-3.64214 -5.43174,-7.99314 -6.56836,-9.66797 -1.13665,-1.67482 -2.67424,-3.93318 -3.41601,-5.01953 -0.74177,-1.08635 -3.88892,-5.71535 -6.99414,-10.28711 -13.40327,-19.73344 -18.64076,-27.44193 -21.5293,-31.68554 -9.41579,-13.83266 -15.09838,-22.26094 -16.08008,-23.85352 -1.45394,-2.35892 -3.18101,-5.67703 -4.10351,-7.87891 -2.76605,-6.60219 -3.0246,-12.4064 -0.75586,-16.98046 2.59646,-5.2348 7.94137,-8.32125 14.90039,-8.60547 2.3088,-0.0942 4.18481,0.0902 6.48828,0.64062 1.84528,0.44103 3.11318,0.3276 5.60351,-0.50586 3.31726,-1.11023 7.78388,-3.26935 16.24805,-7.85547 13.46703,-7.29679 18.88552,-9.60742 22.53711,-9.60742 0.58549,0 1.31458,0.10625 1.6211,0.23438 0.30693,0.12827 1.62053,1.22066 2.91796,2.42773 2.53954,2.36262 8.39614,7.67806 10.66797,9.68359 0.76838,0.67832 1.65675,1.46692 1.97461,1.75 3.56924,3.18097 15.90289,13.82083 21.72461,18.74219 1.39215,1.17691 3.05468,2.58801 3.69531,3.13672 0.43374,0.37126 4.4069,3.71585 5.87891,4.95899 a 195.97262,195.97262 0 0 0 3.62305,-36.7793 195.97262,195.97262 0 0 0 -0.14844,-7.19922 c -0.60376,-0.79378 -1.78285,-2.3484 -2.0625,-2.71484 -0.9326,-1.22219 -6.39026,-8.40756 -12.12891,-15.9668 -5.73857,-7.55928 -10.91402,-14.368 -11.5,-15.13086 -0.58613,-0.76309 -1.85584,-2.43115 -2.82226,-3.70508 -0.96631,-1.27393 -6.22999,-8.20334 -11.69727,-15.40039 -5.46735,-7.19713 -10.20173,-13.45538 -10.52148,-13.9082 -0.95694,-1.35542 -2.96584,-3.25451 -4.03711,-3.81641 -1.39368,-0.72982 -2.92897,-1.1004 -4.46875,-1.10937 z"
         transform="scale(0.26458333)" />
      <circle
         style="fill:none;stroke:#384446;stroke-width:3;stroke-linecap:round;stroke-linejoin:round;stroke-miterlimit:4;stroke-dasharray:none;stroke-opacity:1;paint-order:stroke fill markers"
         id="path978"
         cx="102.17715"
         cy="152.12195"
         r="51.851089" />
    </g>
  </g>
</svg>
